<svg width="512" height="512" version="1.1" xmlns="http://www.w3.org/2000/svg" desc="Created with imagetracer.js version 1.2.6" ><path fill="rgb(0,0,0)" stroke="rgb(0,0,0)" stroke-width="1" opacity="0.00784313725490196" d="M 65 0 L 446.5 0 L 447 0.5 L 447 23 L 65.5 23 L 65 22.5 L 65 0 Z " /><path fill="rgb(0,0,0)" stroke="rgb(0,0,0)" stroke-width="1" opacity="0.00784313725490196" d="M 0 65 L 19.5 65 L 20 65.5 L 20 192 L 0.5 192 L 0 191.5 L 0 65 Z " /><path fill="rgb(0,0,0)" stroke="rgb(0,0,0)" stroke-width="1" opacity="0.00784313725490196" d="M 487 65 L 511.5 65 L 512 65.5 L 512 192 L 487.5 192 L 487 191.5 L 487 65 Z " /><path fill="rgb(0,0,0)" stroke="rgb(0,0,0)" stroke-width="1" opacity="0.00784313725490196" d="M 0 448 L 20.5 448 L 21 449.5 L 20 450.5 L 20 489 L 64 489 L 64 512 L 0 512 L 0 448 Z " /><path fill="rgb(0,0,0)" stroke="rgb(0,0,0)" stroke-width="1" opacity="0.00784313725490196" d="M 486 448 L 512 448 L 512 512 L 448 512 L 448 489 L 486 489 L 486 448 Z " /><path fill="rgb(0,0,0)" stroke="rgb(0,0,0)" stroke-width="1" opacity="0.00784313725490196" d="M 128 489 L 383.5 489 L 384 489.5 L 384 512 L 128.5 512 L 128 511.5 L 128 489 Z " /><path fill="rgb(129,167,223)" stroke="rgb(129,167,223)" stroke-width="1" opacity="0.996078431372549" d="M 0 0 L 65 0.5 L 64 1.5 L 64 23 L 21 23 L 21 64 L 0 64 L 0 0 Z " /><path fill="rgb(129,167,223)" stroke="rgb(129,167,223)" stroke-width="1" opacity="0.996078431372549" d="M 447 0 L 512 0 L 512 64 L 486 64 L 486 23 L 447 23 L 447 0 Z " /><path fill="rgb(129,167,223)" stroke="rgb(129,167,223)" stroke-width="1" opacity="0.996078431372549" d="M 195 82 L 312 82 L 312 138.5 L 310.5 140 L 195 140 L 195 82 Z " /><path fill="rgb(54,65,80)" stroke="rgb(54,65,80)" stroke-width="1" opacity="1" d="M 486.5 65 L 487 191.5 L 486 191.5 L 486.5 65 Z " /><path fill="rgb(54,65,80)" stroke="rgb(54,65,80)" stroke-width="1" opacity="1" d="M 79 82 L 137 82 L 137 139 L 79 139 L 79 82 Z " /><path fill="rgb(54,65,80)" stroke="rgb(54,65,80)" stroke-width="1" opacity="1" d="M 370 82 L 427 82 L 427 139 L 370 139 L 370 82 Z " /><path fill="rgb(84,118,160)" stroke="rgb(84,118,160)" stroke-width="1" opacity="0.996078431372549" d="M 1.5 64 L 21 64.5 L 1.5 65 L 1.5 64 Z " /><path fill="rgb(84,118,160)" stroke="rgb(84,118,160)" stroke-width="1" opacity="0.996078431372549" d="M 486.5 64 L 512 64.5 L 486.5 65 L 486.5 64 Z " /><path fill="rgb(84,118,160)" stroke="rgb(84,118,160)" stroke-width="1" opacity="0.996078431372549" d="M 79.5 139 L 137 139.5 L 79.5 140 L 79.5 139 Z " /><path fill="rgb(84,118,160)" stroke="rgb(84,118,160)" stroke-width="1" opacity="0.996078431372549" d="M 370.5 139 L 427 139.5 L 370.5 140 L 370.5 139 Z " /><path fill="rgb(84,118,160)" stroke="rgb(84,118,160)" stroke-width="1" opacity="0.996078431372549" d="M 128 256 L 192 256 L 192 319.5 L 195 320.5 L 195 372 L 137 372 L 137 314.5 L 136.5 314 L 128.5 314 L 128 313.5 L 128 256 Z " /><path fill="rgb(84,118,160)" stroke="rgb(84,118,160)" stroke-width="1" opacity="0.996078431372549" d="M 320 256 L 384 256 L 384 314 L 370.5 314 L 370 314.5 L 370 372 L 320 372 L 320 256 Z " /><path fill="rgb(84,118,160)" stroke="rgb(84,118,160)" stroke-width="1" opacity="0.996078431372549" d="M 0 320 L 79 320 L 79 431 L 64.5 431 L 64 430.5 L 64 385 L 0 385 L 0 320 Z " /><path fill="rgb(84,118,160)" stroke="rgb(84,118,160)" stroke-width="1" opacity="0.996078431372549" d="M 427 320 L 512 320 L 512 385 L 448 385 L 448 431 L 428 431 L 427 320 Z " /><path fill="rgb(84,118,160)" stroke="rgb(84,118,160)" stroke-width="1" opacity="0.996078431372549" d="M 20.5 451 L 21 488.5 L 20 488.5 L 20.5 451 Z " /><path fill="rgb(84,118,160)" stroke="rgb(84,118,160)" stroke-width="1" opacity="0.996078431372549" d="M 64.5 489 L 65 511.5 L 64 511.5 L 64.5 489 Z " /><path fill="rgb(84,118,160)" stroke="rgb(84,118,160)" stroke-width="1" opacity="0.996078431372549" d="M 127.5 489 L 128 511.5 L 127 511.5 L 127.5 489 Z " /><path fill="rgb(84,118,160)" stroke="rgb(84,118,160)" stroke-width="1" opacity="0.996078431372549" d="M 447.5 489 L 448 511.5 L 447 511.5 L 447.5 489 Z " /><path fill="rgb(111,144,181)" stroke="rgb(111,144,181)" stroke-width="1" opacity="0.996078431372549" d="M 64.5 1 L 65 22.5 L 64 22.5 L 64.5 1 Z " /><path fill="rgb(111,144,181)" stroke="rgb(111,144,181)" stroke-width="1" opacity="0.996078431372549" d="M 79.5 81 L 137 81.5 L 79.5 82 L 79.5 81 Z " /><path fill="rgb(111,144,181)" stroke="rgb(111,144,181)" stroke-width="1" opacity="0.996078431372549" d="M 370.5 81 L 426.5 81 L 428 82.5 L 427.5 139 L 427 82 L 370.5 82 L 370.5 81 Z " /><path fill="rgb(111,144,181)" stroke="rgb(111,144,181)" stroke-width="1" opacity="0.996078431372549" d="M 0 256 L 65 256 L 65 320 L 0 320 L 0 256 Z " /><path fill="rgb(111,144,181)" stroke="rgb(111,144,181)" stroke-width="1" opacity="0.996078431372549" d="M 127.5 256 L 128 314 L 136.5 314 L 137 314.5 L 137 372 L 194.5 372 L 194.5 373 L 79 372 L 79 320 L 127 320 L 127.5 256 Z " /><path fill="rgb(111,144,181)" stroke="rgb(111,144,181)" stroke-width="1" opacity="0.996078431372549" d="M 192 256 L 256 256 L 256 320 L 192 320 L 192 256 Z " /><path fill="rgb(111,144,181)" stroke="rgb(111,144,181)" stroke-width="1" opacity="0.996078431372549" d="M 448 256 L 512 256 L 512 320 L 448 320 L 448 256 Z " /><path fill="rgb(111,144,181)" stroke="rgb(111,144,181)" stroke-width="1" opacity="0.996078431372549" d="M 370 314 L 384 314 L 384 319.5 L 384.5 320 L 427 320 L 427 371.5 L 427.5 373 L 426.5 372 L 370.5 372 L 369.5 373 L 320.5 373 L 320.5 372 L 370 372 L 370 314 Z " /><path fill="rgb(111,144,181)" stroke="rgb(111,144,181)" stroke-width="1" opacity="0.996078431372549" d="M 0 385 L 64 385 L 64 430.5 L 64.5 431 L 79 431 L 79 448 L 127 448 L 127 512 L 65.5 512 L 65 511.5 L 65 489 L 21 489 L 21 448 L 0.5 448 L 0 447.5 L 0 385 Z " /><path fill="rgb(111,144,181)" stroke="rgb(111,144,181)" stroke-width="1" opacity="0.996078431372549" d="M 448 385 L 512 385 L 512 448 L 486 448 L 486 489 L 447 489 L 447 512 L 384 512 L 384 448 L 427.5 448 L 428 447.5 L 428 431 L 448 431 L 448 385 Z " /><path fill="rgb(134,159,190)" stroke="rgb(134,159,190)" stroke-width="1" opacity="0.9921568627450981" d="M 20.5 67 L 21 191.5 L 20 191.5 L 20.5 67 Z " /><path fill="rgb(134,159,190)" stroke="rgb(134,159,190)" stroke-width="1" opacity="0.9921568627450981" d="M 65 256 L 127 256 L 127 320 L 65 320 L 65 256 Z " /><path fill="rgb(134,159,190)" stroke="rgb(134,159,190)" stroke-width="1" opacity="0.9921568627450981" d="M 256 256 L 320 256 L 320 372.5 L 320.5 373 L 370 373 L 370 431 L 312 431 L 312 385.5 L 310.5 384 L 256 384 L 256 256 Z " /><path fill="rgb(134,159,190)" stroke="rgb(134,159,190)" stroke-width="1" opacity="0.9921568627450981" d="M 384 256 L 448 256 L 448 320 L 384 320 L 384 256 Z " /><path fill="rgb(134,159,190)" stroke="rgb(134,159,190)" stroke-width="1" opacity="0.9921568627450981" d="M 137 373 L 195 373 L 195 431 L 137 431 L 137 373 Z " /><path fill="rgb(134,159,190)" stroke="rgb(134,159,190)" stroke-width="1" opacity="0.9921568627450981" d="M 427.5 373 L 428 447.5 L 427 447.5 L 427.5 373 Z " /><path fill="rgb(134,159,190)" stroke="rgb(134,159,190)" stroke-width="1" opacity="0.9921568627450981" d="M 127.5 448 L 128 488.5 L 127 488.5 L 127.5 448 Z " /><path fill="rgb(189,202,224)" stroke="rgb(189,202,224)" stroke-width="1" opacity="0.996078431372549" d="M 21 23 L 486 23 L 486 192.5 L 488.5 193 L 489.5 192 L 512 192 L 512 255.5 L 511.5 256 L 0 256 L 0 192.5 L 0.5 192 L 20.5 192 L 21 191.5 L 21 23 Z M 79 81 L 79 140 L 137 140 L 137 81 L 79 81 Z M 370 81 L 370 140 L 428 140 L 428 81 L 370 81 Z M 195 82 L 195 140 L 311 140 L 312 139 L 312 82 L 195 82 Z " /><path fill="rgb(189,202,224)" stroke="rgb(189,202,224)" stroke-width="1" opacity="0.996078431372549" d="M 79 372 L 137 372 L 137 431 L 79 431 L 79 372 Z " /><path fill="rgb(189,202,224)" stroke="rgb(189,202,224)" stroke-width="1" opacity="0.996078431372549" d="M 370 372 L 427 372 L 427 431 L 370 431 L 370 372 Z " /><path fill="rgb(189,202,224)" stroke="rgb(189,202,224)" stroke-width="1" opacity="0.996078431372549" d="M 256.5 384 L 310.5 384 L 312 385.5 L 311.5 431 L 311 385 L 256.5 385 L 256.5 384 Z " /><path fill="rgb(235,210,210)" stroke="rgb(235,210,210)" stroke-width="1" opacity="1" d="M 195 320 L 256 320 L 256 385 L 311 385 L 311 431 L 426.5 431 L 427 431.5 L 427 448 L 384 448 L 384 488.5 L 383.5 489 L 128 489 L 128 448 L 79 448 L 79 431 L 195 431 L 195 320 Z " /></svg>